<svg width="70" height="70" viewBox="0 0 70 70" fill="none" xmlns="http://www.w3.org/2000/svg">
<rect width="70" height="70" rx="12.8947" fill="#EF6C33"/>
<g clip-path="url(#clip0_18572_649)">
<path d="M41.6183 19.2819C35.4455 13.1092 25.4546 13.1092 19.2819 19.2819C13.1092 25.4546 13.1092 35.4455 19.2819 41.6183C24.8183 47.1546 33.4092 47.7273 39.5183 43.4001L41.6819 45.5637L41.0455 46.2001C40.791 46.4546 40.791 46.8364 41.0455 47.091L48.1092 54.091C49.7637 55.7455 52.4364 55.7455 54.091 54.091C55.7455 52.4364 55.7455 49.7637 54.091 48.1092L47.091 41.1092C46.8364 40.8546 46.4546 40.8546 46.2001 41.1092L45.5637 41.7455L43.4001 39.5819C47.6637 33.4092 47.1546 24.8183 41.6183 19.2819ZM20.1728 40.7273C14.5092 35.0637 14.5092 25.8364 20.1728 20.1728C25.8364 14.5092 35.0001 14.5092 40.7273 20.1728C46.391 25.8364 46.391 35.0637 40.7273 40.7273C35.0001 46.391 25.8364 46.391 20.1728 40.7273ZM53.2001 49.0001C54.3455 50.1455 54.3455 52.0546 53.2001 53.2001C52.0546 54.3455 50.1455 54.3455 49.0001 53.2001L42.4455 46.6455L46.6455 42.4455L53.2001 49.0001ZM44.6728 42.6364C44.6092 42.7001 42.5092 44.8001 42.6364 44.6728L40.5364 42.5728C40.9183 42.2546 41.2364 41.9364 41.6183 41.6183C41.9364 41.3001 42.2546 40.9183 42.5728 40.5364L44.6728 42.6364Z" fill="white"/>
<path d="M39.0091 21.8909C34.2364 17.1819 26.6 17.1819 21.8909 21.8909C17.1819 26.6 17.1819 34.3 21.8909 39.0091C26.6 43.7182 34.3 43.7182 39.0091 39.0091C43.7182 34.3 43.7182 26.6 39.0091 21.8909ZM38.0546 38.1182C33.8546 42.3182 26.9819 42.3182 22.7819 38.1182C18.5819 33.9182 18.5819 27.0455 22.7819 22.8455C26.9819 18.6455 33.8546 18.6455 38.0546 22.8455C42.3182 26.9819 42.3182 33.8546 38.0546 38.1182Z" fill="white"/>
<path d="M37.6728 25.2636C36.9092 24.5 35.5092 24.5 34.7456 25.2636L28.8274 31.1818L26.1547 28.5091C25.391 27.7455 23.991 27.7455 23.2274 28.5091C22.4001 29.3364 22.4001 30.6091 23.2274 31.4364L27.3638 35.5727C27.7456 35.9546 28.2547 36.2091 28.8274 36.2091C29.4001 36.2091 29.9092 36.0182 30.291 35.5727L37.6728 28.1909C38.4365 27.4273 38.4365 26.0909 37.6728 25.2636ZM36.7819 27.3L29.4001 34.6818C29.0819 35 28.5728 35 28.2547 34.6818L24.1183 30.5455C23.8001 30.2273 23.8001 29.7182 24.1183 29.4C24.2456 29.2727 24.4365 29.1455 24.691 29.1455C24.9456 29.1455 25.0728 29.2091 25.2638 29.4L28.3819 32.5182C28.6365 32.7727 29.0183 32.7727 29.2728 32.5182L35.6365 26.1546C35.9547 25.8364 36.4638 25.8364 36.7819 26.1546C37.0365 26.4727 37.0365 26.9818 36.7819 27.3Z" fill="white"/>
</g>
<defs>
<clipPath id="clip0_18572_649">
<rect width="42" height="42" fill="white" transform="translate(14 14)"/>
</clipPath>
</defs>
</svg>
