<svg width="32" height="32" viewBox="0 0 32 32" fill="none" xmlns="http://www.w3.org/2000/svg">
<rect width="32" height="32" rx="16" fill="#FCE8E3"/>
<rect x="0.5" y="0.5" width="31" height="31" rx="15.5" stroke="#EE6C4D" stroke-opacity="0.23"/>
<g clip-path="url(#clip0_18569_242)">
<path d="M24.9783 16.2102C25.406 15.3641 25.2289 14.3598 24.5376 13.711L23.5343 12.7693C23.3029 12.5521 23.1614 12.307 23.089 11.998L22.7751 10.6583C22.559 9.73525 21.7777 9.07969 20.8311 9.02704L19.4573 8.95062C19.1404 8.93299 18.8744 8.83619 18.6203 8.64602L17.5188 7.82147C16.7599 7.25339 15.74 7.25332 14.981 7.82147L13.8795 8.64599C13.6254 8.83619 13.3594 8.93299 13.0425 8.95062L11.6687 9.02704C10.7222 9.07969 9.94091 9.73525 9.72469 10.6583L9.4108 11.998C9.33843 12.307 9.19693 12.5521 8.96554 12.7693L7.9622 13.711C7.27095 14.3597 7.09386 15.3641 7.52153 16.2102L8.14229 17.4381C8.28548 17.7214 8.33462 18.0001 8.29694 18.3153L8.13362 19.6815C8.02114 20.6228 8.53104 21.506 9.40249 21.8793L10.6674 22.421C10.9591 22.5459 11.1759 22.7278 11.3497 22.9934L12.1028 24.145C12.6216 24.9384 13.5799 25.2872 14.4875 25.013L15.8046 24.6149C16.1084 24.5231 16.3914 24.5231 16.6952 24.6149L18.0123 25.013C18.2188 25.0754 18.4278 25.1055 18.6338 25.1055C19.3331 25.1055 19.9962 24.7579 20.397 24.145L21.1501 22.9934C21.3239 22.7278 21.5407 22.5459 21.8324 22.4209L23.0973 21.8792C23.9687 21.506 24.4787 20.6228 24.3661 19.6815L24.2028 18.3152C24.1651 18.0001 24.2143 17.7214 24.3575 17.4381L24.9783 16.2102ZM23.8416 17.1774C23.6473 17.5617 23.5777 17.9564 23.6288 18.3839L23.7922 19.7501C23.8752 20.4452 23.5132 21.0723 22.8697 21.3479L21.6049 21.8896C21.209 22.0591 20.902 22.3167 20.6664 22.677L19.9132 23.8286C19.5301 24.4144 18.8496 24.6621 18.1796 24.4596L16.8625 24.0615C16.6564 23.9993 16.4532 23.9681 16.2499 23.9681C16.0467 23.9681 15.8434 23.9993 15.6374 24.0615L14.3202 24.4596C13.6503 24.662 12.9697 24.4144 12.5866 23.8286L11.8335 22.677C11.5978 22.3167 11.2908 22.0591 10.895 21.8896L9.63009 21.3479C8.98664 21.0723 8.62459 20.4452 8.70766 19.7501L8.87098 18.3839C8.92211 17.9563 8.85252 17.5617 8.65823 17.1773L8.03747 15.9494C7.72174 15.3247 7.84745 14.6116 8.35782 14.1325L9.36116 13.1908C9.67512 12.8962 9.87547 12.5491 9.97368 12.1298L10.2876 10.7901C10.4472 10.1086 11.0019 9.64314 11.7008 9.6043L13.0746 9.52788C13.5046 9.50396 13.8812 9.36687 14.2259 9.10885L15.3274 8.2843C15.8878 7.86487 16.612 7.86483 17.1723 8.2843L18.2739 9.10885C18.6186 9.36687 18.9952 9.50396 19.4252 9.52788L20.799 9.6043C21.4979 9.64318 22.0526 10.1086 22.2122 10.7902L22.5261 12.1298C22.6243 12.5492 22.8247 12.8962 23.1387 13.1908L24.142 14.1325C24.6523 14.6115 24.7781 15.3247 24.4623 15.9494L23.8416 17.1774ZM16.25 10.3406C12.9915 10.3406 10.3406 12.9915 10.3406 16.25C10.3406 19.5085 12.9915 22.1594 16.25 22.1594C19.5084 22.1594 22.1593 19.5085 22.1593 16.25C22.1593 12.9915 19.5084 10.3406 16.25 10.3406ZM16.25 21.5812C13.3103 21.5812 10.9187 19.1897 10.9187 16.25C10.9187 13.3103 13.3103 10.9187 16.25 10.9187C19.1896 10.9187 21.5812 13.3103 21.5812 16.25C21.5812 19.1897 19.1896 21.5812 16.25 21.5812ZM18.7103 13.5715C18.7089 13.5715 18.7075 13.5715 18.706 13.5715C18.4172 13.5726 18.1463 13.6861 17.9433 13.8912L15.5463 16.3121L14.5563 15.3221C14.3519 15.1177 14.08 15.0051 13.7908 15.0051C13.5015 15.0051 13.2297 15.1177 13.0252 15.3221C12.6032 15.7442 12.6032 16.4311 13.0252 16.8531L14.7835 18.6114C14.9946 18.8224 15.2718 18.9279 15.549 18.9279C15.8263 18.9279 16.1035 18.8224 16.3146 18.6114C16.9812 17.9447 17.6538 17.2625 18.3043 16.6027C18.6951 16.2062 19.0861 15.8098 19.4779 15.4143C19.8971 14.9912 19.8949 14.3057 19.473 13.8861C19.2688 13.6831 18.9982 13.5715 18.7103 13.5715ZM19.0672 15.0073C18.675 15.4032 18.2838 15.8 17.8925 16.1968C17.2428 16.8559 16.5709 17.5374 15.9057 18.2025C15.709 18.3992 15.3889 18.3992 15.1923 18.2025L13.4341 16.4443C13.2374 16.2476 13.2374 15.9275 13.4341 15.7308C13.5293 15.6356 13.656 15.5831 13.7908 15.5831C13.9255 15.5831 14.0522 15.6356 14.1475 15.7308L15.3429 16.9263C15.3971 16.9805 15.4706 17.0109 15.5473 17.0109H15.548C15.6249 17.0107 15.6986 16.9799 15.7527 16.9252L18.3542 14.2978C18.4483 14.2027 18.5741 14.15 18.7083 14.1495H18.7103C18.8443 14.1495 18.9703 14.2015 19.0653 14.296C19.2616 14.4912 19.2625 14.8103 19.0672 15.0073Z" fill="#EF6C33"/>
</g>
<defs>
<clipPath id="clip0_18569_242">
<rect width="18.5" height="18.5" fill="white" transform="translate(7 7)"/>
</clipPath>
</defs>
</svg>
