<svg width="41" height="41" viewBox="0 0 41 41" fill="none" xmlns="http://www.w3.org/2000/svg">
<path d="M17.9375 26.052C17.6079 26.0268 17.3013 25.8735 17.0833 25.6249L11.9583 20.4999C11.8442 20.2608 11.8069 19.9922 11.8517 19.7311C11.8965 19.47 12.0212 19.2291 12.2085 19.0418C12.3959 18.8544 12.6367 18.7298 12.8978 18.685C13.159 18.6402 13.4276 18.6774 13.6667 18.7916L17.8863 23.0112L32.4583 8.54159C32.6974 8.42741 32.966 8.39015 33.2272 8.43496C33.4883 8.47976 33.7291 8.60442 33.9165 8.79177C34.1038 8.97913 34.2285 9.21995 34.2733 9.48109C34.3181 9.74223 34.2809 10.0108 34.1667 10.2499L18.7917 25.6249C18.5737 25.8735 18.2671 26.0268 17.9375 26.052Z" fill="#EF6C33"/>
<path d="M20.4999 35.8748C17.752 35.8704 15.0555 35.1296 12.691 33.7295C10.3265 32.3295 8.38046 30.3213 7.05536 27.914C6.04948 26.1196 5.42704 24.1359 5.22744 22.0886C4.91478 19.0854 5.49327 16.0567 6.89075 13.3803C8.28823 10.7038 10.4428 8.49803 13.0858 7.03814C14.8802 6.03226 16.8638 5.40982 18.9112 5.21022C20.9512 4.99269 23.0141 5.19027 24.9758 5.79106C25.1508 5.82603 25.3166 5.89719 25.4625 5.99997C25.6085 6.10275 25.7313 6.23489 25.8232 6.38792C25.9151 6.54094 25.974 6.71148 25.9961 6.88859C26.0182 7.06571 26.0031 7.24549 25.9517 7.41643C25.9003 7.58736 25.8138 7.74566 25.6976 7.8812C25.5815 8.01673 25.4383 8.1265 25.2773 8.20347C25.1162 8.28044 24.9409 8.32292 24.7624 8.32817C24.584 8.33342 24.4065 8.30134 24.2412 8.23397C22.5819 7.7341 20.8393 7.57146 19.1162 7.75564C17.4127 7.92865 15.7621 8.44591 14.2645 9.27606C12.8212 10.0723 11.5451 11.1396 10.5062 12.4194C9.43654 13.7231 8.63778 15.2272 8.1567 16.8435C7.67562 18.4598 7.5219 20.1558 7.70452 21.8323C7.87753 23.5358 8.3948 25.1864 9.22494 26.684C10.0212 28.1273 11.0885 29.4034 12.3683 30.4423C13.672 31.512 15.1761 32.3107 16.7924 32.7918C18.4087 33.2729 20.1047 33.4266 21.7812 33.244C23.4847 33.071 25.1353 32.5537 26.6329 31.7236C28.0762 30.9273 29.3523 29.86 30.3912 28.5802C31.4608 27.2765 32.2596 25.7724 32.7407 24.1561C33.2218 22.5398 33.3755 20.8438 33.1929 19.1673C33.1589 18.8116 33.2676 18.457 33.495 18.1815C33.7225 17.906 34.0501 17.7321 34.4058 17.6981C34.7614 17.6642 35.116 17.7729 35.3916 18.0003C35.6671 18.2278 35.841 18.5554 35.8749 18.9111C36.186 21.916 35.605 24.9459 34.2044 27.6226C32.8037 30.2992 30.6456 32.504 27.9995 33.9615C26.186 35.0085 24.1718 35.6606 22.0887 35.8748H20.4999Z" fill="#EF6C33"/>
</svg>
