<svg width="58" height="57" viewBox="0 0 58 57" fill="none" xmlns="http://www.w3.org/2000/svg">
<circle cx="29.0004" cy="28.5997" r="19.5" transform="rotate(43.7212 29.0004 28.5997)" stroke="white"/>
<g clip-path="url(#clip0_18572_753)">
<path d="M35.2805 21.5665C35.0855 21.5706 34.9308 21.7324 34.9358 21.9269L35.2052 34.0465L22.561 21.9545C22.4202 21.8198 22.1964 21.8252 22.0623 21.9654C21.9281 22.1058 21.9327 22.3296 22.0735 22.4643L34.7177 34.5563L22.5992 34.8268C22.4051 34.8313 22.2504 34.9931 22.2545 35.1873C22.2591 35.3818 22.4209 35.5366 22.615 35.532L35.5851 35.2425L35.9386 35.2348L35.931 34.883C35.931 34.883 35.931 34.883 35.9305 34.8813L35.641 21.9112C35.6356 21.7175 35.4742 21.5632 35.2805 21.5665Z" fill="white" stroke="white"/>
</g>
<defs>
<clipPath id="clip0_18572_753">
<rect width="19.2" height="19.2" fill="white" transform="translate(15.4277 28.9031) rotate(-46.2788)"/>
</clipPath>
</defs>
</svg>
