<svg width="70" height="70" viewBox="0 0 70 70" fill="none" xmlns="http://www.w3.org/2000/svg">
<rect width="70" height="70" rx="12.8947" fill="#FDF0ED"/>
<path d="M12.8156 53.1117C12.6609 53.3507 12.668 53.6601 12.8367 53.8921C12.9703 54.082 13.1883 54.1945 13.4133 54.1945C13.4625 54.1945 13.5117 54.1945 13.568 54.1804L20.0297 52.746C21.893 53.6953 23.9813 54.1945 26.0766 54.1945C33.368 54.1945 39.3094 48.3164 39.4219 41.046C42.5859 41.9039 46.0523 41.5804 48.9914 40.0898L55.4531 41.5171C55.5023 41.5312 55.5516 41.5312 55.6078 41.5312C55.8328 41.5312 56.0508 41.4187 56.1844 41.2289C56.3461 40.9968 56.3531 40.6874 56.2055 40.4484L53.5687 36.2789C55.3406 33.9656 56.3109 31.1039 56.3109 28.1648C56.3109 20.796 50.3203 14.8054 42.9516 14.8054C35.5828 14.8054 29.7188 20.6835 29.6063 27.9468C28.4813 27.6375 27.3 27.4617 26.0766 27.4617C18.6938 27.4687 12.7031 33.4593 12.7031 40.8281C12.7031 43.7601 13.6734 46.6218 15.4523 48.9421L12.8156 53.1117ZM42.9375 16.2187C49.5258 16.2187 54.8906 21.5835 54.8906 28.1718C54.8906 30.9492 53.9203 33.6562 52.1484 35.7867C51.9516 36.0187 51.9305 36.3562 52.0922 36.6093L54.0961 39.7734L49.0336 38.6554C48.8719 38.6203 48.6961 38.6414 48.5484 38.7187C45.743 40.2093 42.3609 40.4976 39.3516 39.5554C38.8734 34.4859 35.5406 30.232 30.9844 28.4179C30.9844 28.3335 30.9773 28.2492 30.9773 28.1648C30.9773 21.5765 36.3422 16.2117 42.9305 16.2117L42.9375 16.2187ZM14.1094 40.8281C14.1094 34.2398 19.4742 28.875 26.0625 28.875C32.6508 28.875 38.0156 34.2398 38.0156 40.8281C38.0156 47.4164 32.6508 52.7812 26.0625 52.7812C24.1078 52.7812 22.1672 52.296 20.4445 51.375C20.3391 51.3187 20.2266 51.2906 20.1141 51.2906C20.0648 51.2906 20.0086 51.2906 19.9594 51.3046L14.9039 52.4226L16.9078 49.2585C17.0695 48.9984 17.0484 48.6679 16.8586 48.4359C15.0867 46.2984 14.1164 43.5914 14.1164 40.814L14.1094 40.8281Z" fill="#EF6C33"/>
<path d="M26.0625 47.1562C26.645 47.1562 27.1172 46.6841 27.1172 46.1016C27.1172 45.5191 26.645 45.0469 26.0625 45.0469C25.48 45.0469 25.0078 45.5191 25.0078 46.1016C25.0078 46.6841 25.48 47.1562 26.0625 47.1562Z" fill="#EF6C33"/>
<path d="M26.0625 35.2031C27.2227 35.2031 28.1719 36.1523 28.1719 37.3125C28.1719 38.4727 27.2227 39.4219 26.0625 39.4219C25.6758 39.4219 25.3594 39.7383 25.3594 40.125V43.6406H26.7656V40.7578C28.3688 40.4344 29.5781 39.0141 29.5781 37.3125C29.5781 35.3719 28.0031 33.7969 26.0625 33.7969C24.1219 33.7969 22.5469 35.3719 22.5469 37.3125H23.9531C23.9531 36.1523 24.9023 35.2031 26.0625 35.2031Z" fill="#EF6C33"/>
<path d="M37.3125 23.25H48.5625V24.6562H37.3125V23.25Z" fill="#EF6C33"/>
<path d="M37.3125 27.4688H48.5625V28.875H37.3125V27.4688Z" fill="#EF6C33"/>
<path d="M40.125 31.6875H48.5625V33.0938H40.125V31.6875Z" fill="#EF6C33"/>
</svg>
