<svg width="70" height="70" viewBox="0 0 70 70" fill="none" xmlns="http://www.w3.org/2000/svg">
<rect width="70" height="70" rx="12.8947" fill="#FDF0ED"/>
<path fill-rule="evenodd" clip-rule="evenodd" d="M41.6933 23.4499C41.9887 23.4499 42.2295 23.6905 42.2295 23.9864C42.2295 24.2817 41.9888 24.5225 41.6933 24.5225C41.3977 24.5225 41.1575 24.2817 41.1575 23.9864C41.1575 23.6905 41.3978 23.4499 41.6933 23.4499ZM41.6933 25.7652C42.6745 25.7652 43.472 24.9666 43.472 23.9864C43.472 23.0054 42.6745 22.207 41.6933 22.207C40.7124 22.207 39.915 23.0054 39.915 23.9864C39.915 24.9666 40.7124 25.7652 41.6933 25.7652ZM36.2767 23.4499C36.5726 23.4499 36.8125 23.6905 36.8125 23.9864C36.8125 24.2817 36.5726 24.5225 36.2767 24.5225C35.9808 24.5225 35.7405 24.2817 35.7405 23.9864C35.7405 23.6905 35.9808 23.4499 36.2767 23.4499ZM36.2767 25.7652C37.2575 25.7652 38.0555 24.9666 38.0555 23.9864C38.0555 23.0054 37.2575 22.207 36.2767 22.207C35.2959 22.207 34.4979 23.0054 34.4979 23.9864C34.4979 24.9666 35.296 25.7652 36.2767 25.7652ZM30.8598 23.4499C31.1557 23.4499 31.396 23.6905 31.396 23.9864C31.396 24.2817 31.1557 24.5225 30.8598 24.5225C30.5647 24.5225 30.324 24.2817 30.324 23.9864C30.324 23.6905 30.5647 23.4499 30.8598 23.4499ZM30.8598 25.7652C31.8411 25.7652 32.6385 24.9666 32.6385 23.9864C32.6385 23.0054 31.8411 22.207 30.8598 22.207C29.879 22.207 29.081 23.0054 29.081 23.9864C29.081 24.9666 29.879 25.7652 30.8598 25.7652ZM25.9922 19.6857V28.2864C25.9922 30.0074 27.3917 31.4452 29.1122 31.4909C29.4493 31.4995 29.7177 31.7752 29.7177 32.1116V35.933L33.9767 31.6734C34.0933 31.557 34.252 31.4917 34.4164 31.4917H43.3558C45.1232 31.4917 46.5613 30.0539 46.5613 28.2863V19.6857C46.5613 17.9179 45.1232 16.4804 43.3558 16.4804H29.1977C27.4299 16.4804 25.9922 17.9179 25.9922 19.6857ZM28.4747 32.6748V37.4338C28.4747 37.9863 29.146 38.2631 29.5357 37.8733L34.6734 32.7345H43.3558C45.8084 32.7345 47.8038 30.7393 47.8038 28.2864V19.6857C47.8038 17.233 45.8084 15.2375 43.3558 15.2375H29.1977C26.745 15.2375 24.7497 17.233 24.7497 19.6857V28.2864C24.7497 30.4698 26.3719 32.3237 28.4747 32.6748ZM50.983 43.4517C50.958 43.4726 50.9378 43.4865 50.9106 43.5052L37.5684 52.2013C37.3689 52.3318 37.1598 52.3636 36.93 52.2993L28.686 49.9931C28.323 49.8914 27.9704 49.8905 27.6079 49.9893L24.5568 50.8212V42.108L28.968 40.8871L36.8757 43.0058C37.8583 43.2692 38.4441 44.2828 38.1806 45.2661C37.9175 46.2486 36.9034 46.8335 35.9204 46.5702L27.8496 44.4079C27.5176 44.3193 27.1779 44.5158 27.0884 44.8475C26.9999 45.1785 27.1962 45.5194 27.5277 45.608L35.5986 47.771C37.1188 48.1777 38.7231 47.3712 39.2859 45.8806L50.3447 40.9096C50.5117 40.8342 50.6586 40.8195 50.8362 40.859C52.1208 41.1464 52.0942 42.5308 50.983 43.4517ZM23.3142 51.8022C23.3142 52.1975 22.9928 52.5198 22.5964 52.5198H17.91C17.5136 52.5198 17.1922 52.1975 17.1922 51.8022V41.5425C17.1922 41.1472 17.5136 40.8249 17.91 40.8249H22.5964C22.9928 40.8249 23.3142 41.1473 23.3142 41.5425V51.8022ZM52.9845 41.3926C52.7727 40.5149 52.0713 39.8625 51.108 39.6465C50.6652 39.5472 50.2491 39.5898 49.8352 39.7755L39.466 44.4373C39.3245 43.2147 38.4554 42.1429 37.1971 41.805L29.1263 39.6426C29.0193 39.614 28.9066 39.6146 28.7992 39.6441L24.4319 40.8527C24.1526 40.1109 23.4353 39.5821 22.5966 39.5821H17.91C16.8288 39.5821 15.9492 40.4612 15.9492 41.5424V51.8021C15.9492 52.8825 16.8287 53.7624 17.91 53.7624H22.5964C23.5707 53.7624 24.3804 53.0479 24.5322 52.1159L27.9349 51.1885C28.0822 51.1481 28.2036 51.1481 28.3509 51.1892L36.5949 53.496C37.1649 53.6556 37.7394 53.5725 38.2465 53.2422L51.5888 44.546C51.6563 44.5018 51.7137 44.4597 51.776 44.4077C52.7701 43.583 53.2331 42.4279 52.9845 41.3926Z" fill="#EF6C33"/>
</svg>
