<svg width="70" height="70" viewBox="0 0 70 70" fill="none" xmlns="http://www.w3.org/2000/svg">
<rect width="70" height="70" rx="12.8947" fill="#FDF0ED"/>
<path d="M51.754 24.3924L42.8671 15.5054C42.8065 15.445 42.7347 15.3968 42.6558 15.3637C42.5756 15.3299 42.4895 15.3125 42.4025 15.3125H23.1409C22.9668 15.3125 22.7999 15.3816 22.6768 15.5047C22.5538 15.6278 22.4846 15.7947 22.4846 15.9688V19.2323H18.6377C18.4636 19.2323 18.2967 19.3014 18.1737 19.4245C18.0506 19.5476 17.9814 19.7145 17.9814 19.8885V54.0312C17.9814 54.2053 18.0506 54.3722 18.1737 54.4953C18.2967 54.6184 18.4636 54.6875 18.6377 54.6875H46.8564C47.0305 54.6875 47.1974 54.6184 47.3205 54.4953C47.4436 54.3722 47.5127 54.2053 47.5127 54.0312V50.7677H51.3596C51.5337 50.7677 51.7006 50.6986 51.8237 50.5755C51.9467 50.4524 52.0159 50.2855 52.0159 50.1115V24.9285C52.0159 24.9246 52.0159 24.9213 52.0159 24.9167C52.0159 24.9121 52.0159 24.9095 52.0159 24.9056C52.015 24.8056 51.9909 24.7072 51.9454 24.6181C51.9 24.5291 51.8345 24.4518 51.754 24.3924ZM43.0587 17.5529L49.7525 24.2467H43.0587V17.5529ZM46.2028 53.375H19.2966V20.5448H22.4873V50.1115C22.4873 50.2855 22.5564 50.4524 22.6795 50.5755C22.8025 50.6986 22.9695 50.7677 23.1435 50.7677H46.2028V53.375ZM23.7971 49.4552V19.9062C23.7971 19.901 23.7971 19.8964 23.7971 19.8905C23.7971 19.8846 23.7971 19.8807 23.7971 19.8747V16.625H41.7462V24.9056C41.7462 25.0796 41.8154 25.2465 41.9384 25.3696C42.0615 25.4927 42.2284 25.5618 42.4025 25.5618H50.706V49.4552H23.7971Z" fill="#EF6C33"/>
<path d="M31.2745 24.2329L28.3129 27.1946L27.0594 25.9438C26.9989 25.8811 26.9265 25.8311 26.8464 25.7967C26.7664 25.7623 26.6802 25.7442 26.5931 25.7435C26.506 25.7427 26.4196 25.7593 26.3389 25.7923C26.2583 25.8253 26.185 25.874 26.1234 25.9356C26.0617 25.9973 26.013 26.0705 25.98 26.1512C25.947 26.2318 25.9304 26.3183 25.9312 26.4054C25.9319 26.4925 25.95 26.5786 25.9844 26.6587C26.0188 26.7388 26.0688 26.8112 26.1315 26.8717L27.8469 28.5865C27.97 28.7095 28.1369 28.7786 28.3109 28.7786C28.4849 28.7786 28.6518 28.7095 28.7749 28.5865L32.2005 25.1609C32.2632 25.1003 32.3132 25.0279 32.3476 24.9479C32.382 24.8678 32.4001 24.7817 32.4008 24.6945C32.4016 24.6074 32.385 24.521 32.352 24.4403C32.319 24.3597 32.2702 24.2864 32.2086 24.2248C32.147 24.1632 32.0737 24.1145 31.9931 24.0815C31.9124 24.0485 31.826 24.0319 31.7389 24.0326C31.6518 24.0334 31.5656 24.0515 31.4856 24.0859C31.4055 24.1203 31.3331 24.1703 31.2726 24.2329H31.2745Z" fill="#EF6C33"/>
<path d="M31.2744 31.6925L28.3128 34.6542L27.0593 33.4007C26.9983 33.3398 26.926 33.2915 26.8463 33.2585C26.7667 33.2256 26.6813 33.2086 26.5951 33.2087C26.5089 33.2087 26.4236 33.2257 26.3439 33.2587C26.2643 33.2917 26.192 33.3401 26.1311 33.4011C26.0701 33.462 26.0218 33.5344 25.9888 33.6141C25.9559 33.6937 25.9389 33.7791 25.939 33.8653C25.939 33.9515 25.956 34.0368 25.989 34.1164C26.022 34.1961 26.0704 34.2684 26.1314 34.3293L27.8468 36.0461C27.9699 36.1691 28.1368 36.2382 28.3108 36.2382C28.4848 36.2382 28.6517 36.1691 28.7748 36.0461L32.2004 32.6205C32.3199 32.4967 32.3861 32.3309 32.3846 32.1588C32.3831 31.9868 32.3141 31.8222 32.1924 31.7005C32.0707 31.5788 31.9061 31.5098 31.734 31.5083C31.562 31.5068 31.3962 31.573 31.2724 31.6925H31.2744Z" fill="#EF6C33"/>
<path d="M31.2745 39.1521L28.3129 42.1138L27.0594 40.861C26.9989 40.7983 26.9265 40.7483 26.8464 40.7139C26.7664 40.6795 26.6802 40.6614 26.5931 40.6607C26.506 40.6599 26.4196 40.6765 26.3389 40.7095C26.2583 40.7425 26.185 40.7913 26.1234 40.8529C26.0617 40.9145 26.013 40.9878 25.98 41.0684C25.947 41.1491 25.9304 41.2355 25.9312 41.3226C25.9319 41.4097 25.95 41.4959 25.9844 41.5759C26.0188 41.656 26.0688 41.7284 26.1315 41.7889L27.8469 43.5057C27.97 43.6287 28.1369 43.6978 28.3109 43.6978C28.4849 43.6978 28.6518 43.6287 28.7749 43.5057L32.2005 40.0801C32.2632 40.0195 32.3132 39.9471 32.3476 39.867C32.382 39.787 32.4001 39.7009 32.4008 39.6137C32.4016 39.5266 32.385 39.4402 32.352 39.3595C32.319 39.2789 32.2702 39.2056 32.2086 39.144C32.147 39.0824 32.0737 39.0336 31.9931 39.0007C31.9124 38.9677 31.826 38.951 31.7389 38.9518C31.6518 38.9526 31.5656 38.9707 31.4856 39.0051C31.4055 39.0395 31.3331 39.0894 31.2726 39.1521H31.2745Z" fill="#EF6C33"/>
<path d="M34.5347 27.0659H40.3753C40.5493 27.0659 40.7163 26.9968 40.8393 26.8737C40.9624 26.7506 41.0315 26.5837 41.0315 26.4097C41.0315 26.2356 40.9624 26.0687 40.8393 25.9456C40.7163 25.8226 40.5493 25.7534 40.3753 25.7534H34.5347C34.3606 25.7534 34.1937 25.8226 34.0706 25.9456C33.9476 26.0687 33.8784 26.2356 33.8784 26.4097C33.8784 26.5837 33.9476 26.7506 34.0706 26.8737C34.1937 26.9968 34.3606 27.0659 34.5347 27.0659Z" fill="#EF6C33"/>
<path d="M45.7113 33.6875H34.5347C34.3606 33.6875 34.1937 33.7566 34.0706 33.8797C33.9476 34.0028 33.8784 34.1697 33.8784 34.3438C33.8784 34.5178 33.9476 34.6847 34.0706 34.8078C34.1937 34.9309 34.3606 35 34.5347 35H45.7113C45.8853 35 46.0522 34.9309 46.1753 34.8078C46.2984 34.6847 46.3675 34.5178 46.3675 34.3438C46.3675 34.1697 46.2984 34.0028 46.1753 33.8797C46.0522 33.7566 45.8853 33.6875 45.7113 33.6875Z" fill="#EF6C33"/>
<path d="M42.6636 41.4969H34.5347C34.3606 41.4969 34.1937 41.5661 34.0706 41.6892C33.9476 41.8122 33.8784 41.9791 33.8784 42.1532C33.8784 42.3272 33.9476 42.4942 34.0706 42.6172C34.1937 42.7403 34.3606 42.8094 34.5347 42.8094H42.6636C42.8377 42.8094 43.0046 42.7403 43.1277 42.6172C43.2507 42.4942 43.3199 42.3272 43.3199 42.1532C43.3199 41.9791 43.2507 41.8122 43.1277 41.6892C43.0046 41.5661 42.8377 41.4969 42.6636 41.4969Z" fill="#EF6C33"/>
</svg>
