<svg width="71" height="70" viewBox="0 0 71 70" fill="none" xmlns="http://www.w3.org/2000/svg">
<rect x="0.945312" width="70" height="70" rx="12.8947" fill="#FDF0ED"/>
<path d="M50.4913 28.8321C50.2824 27.6472 49.5247 26.7043 48.4124 26.2451L47.8453 26.011C46.8407 25.5964 46.2619 24.5938 46.405 23.5165L46.4859 22.9081C46.6444 21.7154 46.2066 20.5878 45.2849 19.8143C44.363 19.0408 43.1763 18.8056 42.0295 19.1688L41.4446 19.354C40.4084 19.6822 39.3205 19.2863 38.7376 18.3687L38.4087 17.8511C37.7634 16.8355 36.7032 16.2529 35.4999 16.2529C34.2967 16.2529 33.2365 16.8355 32.5912 17.8511L32.2622 18.3689C31.6793 19.2863 30.5914 19.6822 29.5553 19.3541L28.9703 19.1688C27.8232 18.8058 26.6367 19.041 25.7149 19.8143C24.7932 20.5878 24.3555 21.7154 24.514 22.9082L24.5949 23.5164C24.738 24.5938 24.1593 25.5963 23.1545 26.011L22.5873 26.2452C21.4751 26.7043 20.7174 27.6473 20.5083 28.8323C20.2995 30.0171 20.689 31.1623 21.5771 31.9742L22.0301 32.3883C22.8324 33.1215 23.0334 34.2616 22.5303 35.2251L22.2463 35.7689C21.6894 36.8356 21.715 38.045 22.3166 39.087C22.9183 40.1291 23.9529 40.756 25.155 40.807L25.7679 40.8329C25.7704 40.833 25.7729 40.8334 25.7754 40.8336L22.3702 48.8559C22.2869 49.0521 22.3263 49.2788 22.4708 49.4353C22.6152 49.5919 22.8381 49.6494 23.0402 49.582L27.6653 48.0434L29.7714 52.4392C29.8617 52.6276 30.052 52.7471 30.2601 52.7471C30.2643 52.7471 30.2684 52.747 30.2725 52.7469C30.4855 52.7422 30.6759 52.6129 30.7591 52.4169L33.8971 45.024L34.0597 44.899C34.9211 44.2363 36.0787 44.2363 36.9402 44.899L37.1025 45.0239L40.2407 52.4168C40.3239 52.6129 40.5144 52.7421 40.7273 52.7469C40.7314 52.7469 40.7356 52.747 40.7397 52.747C40.9478 52.747 41.1381 52.6276 41.2284 52.4391L43.3345 48.0434L47.9596 49.5819C48.1616 49.6493 48.3845 49.5918 48.529 49.4352C48.6735 49.2787 48.7128 49.052 48.6296 48.8559L45.2241 40.8334C45.2267 40.8332 45.2293 40.8329 45.2318 40.8327L45.8446 40.8068C47.0468 40.7558 48.0814 40.1289 48.683 39.0868C49.2847 38.0448 49.3104 36.8354 48.7534 35.7688L48.4694 35.2249C47.9665 34.2614 48.1674 33.1214 48.9696 32.3881L49.4225 31.9741C50.3107 31.1623 50.7002 30.0171 50.4913 28.8321ZM30.2304 50.8883L28.4365 47.1441C28.3185 46.8977 28.0355 46.7776 27.7766 46.864L23.837 48.1745L26.8274 41.1298C27.4 41.4482 27.8237 41.9995 27.9747 42.6843L28.1069 43.2835C28.3659 44.4586 29.1629 45.3686 30.2935 45.7801C30.6892 45.9241 31.0926 45.9951 31.4911 45.9951C31.7841 45.9951 32.0741 45.9561 32.3562 45.8801L30.2304 50.8883ZM47.1626 48.1745L43.2232 46.8641C42.9642 46.7779 42.6813 46.8979 42.5633 47.1442L40.7694 50.8884L38.6431 45.8792C39.309 46.0587 40.0195 46.0301 40.7063 45.7802C41.837 45.3686 42.634 44.4586 42.893 43.2836L43.0252 42.6844C43.176 41.9994 43.5997 41.4481 44.1723 41.1298L47.1626 48.1745ZM48.6912 31.174L48.2383 31.588C47.068 32.6577 46.7748 34.3209 47.5086 35.7265L47.7926 36.2705C48.1799 37.0124 48.1628 37.82 47.7443 38.5449C47.3258 39.2696 46.6349 39.6883 45.7988 39.7237L45.186 39.7497C43.6017 39.8168 42.3079 40.9024 41.9667 42.451L41.8346 43.0503C41.6544 43.8675 41.1221 44.4753 40.3356 44.7615C39.5492 45.0477 38.7508 44.9243 38.0875 44.414L37.6012 44.0399C36.3443 43.0729 34.6555 43.073 33.3987 44.0399L32.9124 44.414C32.249 44.9243 31.4507 45.0478 30.6643 44.7615C29.878 44.4753 29.3457 43.8676 29.1655 43.0503L29.0334 42.451C28.692 40.9024 27.3983 39.8169 25.8142 39.7497L25.2013 39.7238C24.3652 39.6884 23.6742 39.2697 23.2557 38.5449C22.8373 37.8202 22.8202 37.0124 23.2075 36.2705L23.4915 35.7267C24.2255 34.3211 23.9322 32.6578 22.7618 31.588L22.3088 31.174C21.6911 30.6094 21.431 29.8445 21.5762 29.0204C21.7216 28.1962 22.2277 27.5664 23.0013 27.2471L23.5684 27.0128C25.0342 26.4078 25.8786 24.9453 25.6697 23.3735L25.5888 22.7652C25.4786 21.9357 25.7709 21.1825 26.4119 20.6446C26.8532 20.2743 27.3662 20.0845 27.9033 20.0845C28.1465 20.0845 28.3947 20.1235 28.6434 20.2022L29.2283 20.3873C30.7399 20.8663 32.3269 20.2885 33.1773 18.95L33.5063 18.4322C33.955 17.726 34.6631 17.3369 35.4999 17.3369C36.3368 17.3369 37.0449 17.726 37.4937 18.4324L37.8226 18.9501C38.673 20.2885 40.26 20.866 41.7716 20.3875L42.3567 20.2022C43.1544 19.9496 43.9469 20.1067 44.588 20.6447C45.2292 21.1827 45.5215 21.9358 45.4113 22.7653L45.3304 23.3737C45.1216 24.9455 45.9659 26.4081 47.4316 27.013L47.9987 27.2471C48.7724 27.5664 49.2784 28.1962 49.4237 29.0203C49.5691 29.8446 49.3089 30.6094 48.6912 31.174ZM35.4999 21.9999C30.4684 21.9999 26.375 26.0933 26.375 31.1248C26.375 36.1563 30.4684 40.2497 35.4999 40.2497C40.5314 40.2497 44.6248 36.1563 44.6248 31.1248C44.6248 26.0933 40.5314 21.9999 35.4999 21.9999ZM35.4999 39.1657C31.0661 39.1657 27.459 35.5585 27.459 31.1248C27.459 26.691 31.0661 23.0838 35.4999 23.0838C39.9337 23.0838 43.5408 26.691 43.5408 31.1248C43.5408 35.5585 39.9337 39.1657 35.4999 39.1657ZM40.4286 26.9529C40.0626 26.6397 39.5971 26.4881 39.1163 26.5252C38.6361 26.5626 38.1992 26.7847 37.8863 27.1503L34.4224 31.1913L33.0851 29.7019C32.4194 28.9624 31.276 28.9021 30.5363 29.5678C30.178 29.8902 29.9667 30.333 29.9413 30.8144C29.9159 31.2956 30.0795 31.7579 30.4017 32.1161L33.1115 35.1339C33.4548 35.5152 33.9398 35.7303 34.451 35.7303C34.4735 35.7303 34.4961 35.7299 34.5187 35.729C35.0513 35.7093 35.5438 35.459 35.8722 35.0418L40.6264 29.4954C41.2729 28.7399 41.1841 27.5994 40.4286 26.9529ZM39.803 28.7904L35.0411 34.3458C35.0352 34.3526 35.0295 34.3596 35.024 34.3667C34.893 34.5361 34.6941 34.6378 34.4786 34.6458C34.2624 34.6532 34.0621 34.5697 33.9177 34.4093L31.2083 31.392C31.2082 31.3919 31.2081 31.3917 31.2079 31.3915C31.0791 31.2484 31.0137 31.0637 31.0239 30.8715C31.034 30.6792 31.1184 30.5024 31.2615 30.3736C31.3991 30.2498 31.5716 30.1888 31.7435 30.1888C31.9407 30.1888 32.1372 30.2691 32.279 30.4267L34.0287 32.3752C34.1329 32.4913 34.2816 32.5558 34.4383 32.5551C34.5943 32.5533 34.742 32.4844 34.8435 32.3659L38.7097 27.8554C38.9676 27.554 39.4226 27.5186 39.7239 27.7766C39.8699 27.9015 39.9585 28.0757 39.9734 28.2673C39.9883 28.4589 39.9276 28.6447 39.803 28.7904Z" fill="#EF6C33"/>
</svg>
