<svg width="71" height="70" viewBox="0 0 71 70" fill="none" xmlns="http://www.w3.org/2000/svg">
<rect x="0.945312" width="70" height="70" rx="12.8947" fill="#FDF0ED"/>
<path fill-rule="evenodd" clip-rule="evenodd" d="M36.0001 23.0387C35.2238 23.0387 34.5931 22.4071 34.5931 21.6316C34.5931 20.8552 35.2239 20.2235 36.0001 20.2235C36.7765 20.2235 37.4072 20.8552 37.4072 21.6316C37.4071 22.407 36.7765 23.0387 36.0001 23.0387ZM36.0001 19.0105C34.5547 19.0105 33.3798 20.1864 33.3798 21.6316C33.3798 23.0758 34.5548 24.2517 36.0001 24.2517C37.4455 24.2517 38.6204 23.0758 38.6204 21.6316C38.6204 20.1864 37.4455 19.0105 36.0001 19.0105ZM39.3835 39.4397C39.6089 39.6886 39.5885 40.0721 39.3401 40.297L35.6005 43.6693C35.3616 43.8849 34.9937 43.8761 34.7658 43.6482L32.6371 41.5198C32.4005 41.2826 32.4005 40.8995 32.6371 40.6625C32.8743 40.4255 33.2586 40.4255 33.4953 40.6625L35.2156 42.3826L38.5275 39.396C38.7763 39.1719 39.1597 39.1913 39.3835 39.4397ZM36.0001 47.0876C39.2441 47.0876 41.8833 44.4489 41.8833 41.2051C41.8833 37.9613 39.244 35.3216 36.0001 35.3216C32.7563 35.3216 30.1175 37.9613 30.1175 41.2051C30.1175 44.4489 32.7563 47.0876 36.0001 47.0876ZM36.0001 34.1085C32.0877 34.1085 28.9042 37.2924 28.9042 41.2051C28.9042 45.1178 32.0877 48.3009 36.0001 48.3009C39.913 48.3009 43.0965 45.1178 43.0965 41.2051C43.0965 37.2924 39.913 34.1085 36.0001 34.1085ZM53.4144 49.8341C53.4144 49.8487 53.3995 49.8624 53.3858 49.8624H44.0743C44.5215 49.2745 44.9201 48.6452 45.2703 47.9723H53.3858C53.3996 47.9723 53.4144 47.9862 53.4144 48.0008V49.8341ZM36.0001 53.7734C45.5171 50.8135 46.3098 43.1176 46.1463 34.7328C42.4956 34.212 38.7759 32.4886 36.0017 30.0318C33.2842 32.4514 29.4868 34.2111 25.854 34.7328C25.6905 43.1177 26.4832 50.8136 36.0001 53.7734ZM18.6139 49.8624C18.6007 49.8624 18.5858 49.8487 18.5858 49.8341V48.0008C18.5858 47.9862 18.6007 47.9723 18.6139 47.9723H26.7295C27.0801 48.6451 27.4788 49.2745 27.9259 49.8624H18.6139ZM21.1658 44.8394H25.5183C25.7027 45.5106 25.9066 46.1234 26.1679 46.7594H21.1658V44.8394ZM25.2263 43.6263H22.8645V27.3848H26.0691V33.4705C25.7753 33.5198 25.4828 33.5617 25.1916 33.5942C24.8896 33.6273 24.6595 33.8787 24.6523 34.183C24.5808 37.1872 24.5778 40.5265 25.2263 43.6263ZM44.7187 27.3848V33.2238C41.6568 32.4831 38.6623 30.8915 36.4171 28.767C36.182 28.5454 35.815 28.5461 35.581 28.7694C33.3977 30.8577 30.351 32.4709 27.282 33.2206V27.3849H44.7187V27.3848ZM21.0539 26.1717H50.9459C51.1299 26.1717 51.2305 26.0681 51.2305 26.0341V24.7257C51.2305 24.3586 50.9648 24.1361 50.7425 24.014L36.9594 16.4403C36.3684 16.1158 35.6317 16.1157 35.0408 16.4403L21.2578 24.014C21.0354 24.1361 20.7696 24.3586 20.7696 24.7257V26.0341C20.7697 26.0681 20.8703 26.1717 21.0539 26.1717ZM47.3483 34.183C47.3406 33.8788 47.1101 33.6273 46.8086 33.5942C46.5167 33.5617 46.2238 33.5205 45.9321 33.4713V27.3847H49.1351V43.6263H46.7739C47.4224 40.5265 47.4193 37.1872 47.3483 34.183ZM50.8344 44.8394V46.7594H45.8324C46.0926 46.1261 46.2984 45.5075 46.4821 44.8394H50.8344ZM53.3858 46.7594H52.0473V44.7778C52.0473 44.143 51.5311 43.6263 50.8953 43.6263H50.3484V27.3848H50.9459C51.7718 27.3848 52.4439 26.779 52.4439 26.0341V24.7257C52.4439 23.9874 52.0365 23.3404 51.3261 22.9506L37.543 15.3778C36.5914 14.8546 35.4088 14.8546 34.4571 15.3778L20.6741 22.9506C19.9637 23.3403 19.5564 23.9873 19.5564 24.7257V26.0341C19.5564 26.779 20.2285 27.3848 21.0539 27.3848H21.6519V43.6264H21.105C20.4697 43.6264 19.9526 44.1431 19.9526 44.7779V46.7595H18.6139C17.9301 46.7595 17.373 47.3167 17.373 48.0009V49.8342C17.373 50.5184 17.9301 51.0755 18.6139 51.0755H28.9747C30.7007 52.8328 32.9714 54.1277 35.8248 54.989C35.94 55.0234 36.0599 55.0235 36.1754 54.989C39.0288 54.1278 41.2996 52.8328 43.0256 51.0755H53.3858C54.0702 51.0755 54.6273 50.5184 54.6273 49.8342V48.0009C54.6273 47.3166 54.0702 46.7594 53.3858 46.7594Z" fill="#EF6C33"/>
</svg>
